<svg xmlns="http://www.w3.org/2000/svg" viewBox="0 0 24 24"><path d="M12.19 2.38a9.344 9.344 0 0 0-9.234 6.893C.9 9.809-.001 11.147 0 12.608c.002 2.89 2.418 5.386 5.337 5.386h13.08c2.36 0 4.583-1.96 4.583-4.506 0-2.44-1.862-4.347-4.25-4.51a7.147 7.147 0 0 0-.55-2.135 6.33 6.33 0 0 0-6.01-4.463z" fill="#4285F4"/><path d="M12.19 2.38a9.344 9.344 0 0 0-9.234 6.893C.9 9.809-.001 11.147 0 12.608c.002 2.89 2.418 5.386 5.337 5.386h13.08c2.36 0 4.583-1.96 4.583-4.506 0-2.44-1.862-4.347-4.25-4.51a7.147 7.147 0 0 0-.55-2.135 6.33 6.33 0 0 0-6.01-4.463z" fill="url(#gc-grad)"/><defs><linearGradient id="gc-grad" x1="0" y1="0" x2="1" y2="1"><stop offset="0%" stop-color="#4285F4"/><stop offset="50%" stop-color="#34A853"/><stop offset="100%" stop-color="#FBBC05"/></linearGradient></defs></svg>
