<svg xmlns="http://www.w3.org/2000/svg" viewBox="0 0 32 32"><path d="M11.2 24.6s-1.1.6.8.9c2.2.3 3.4.3 5.8-.3 0 0 .6.4 1.5.8-5.5 2.3-12.4-.1-8.1-1.4zm-.7-3s-1.2.9.7 1.1c2.5.3 4.4.3 7.8-.4 0 0 .4.4 1.1.7-6.9 2-14.6.2-9.6-1.4z" fill="#5382A1"/><path d="M16.5 14.2c1.4 1.6-.4 3-.4 3s3.5-1.8 1.9-4c-1.5-2.1-2.7-3.2 3.6-6.8 0 0-9.9 2.5-5.1 7.8z" fill="#E76F00"/><path d="M22.8 27.2s.8.7-.9 1.2c-3.3 1-13.6 1.3-16.5 0-1-.4.9-1.1 1.5-1.2.6-.1 1-.1 1-.1-1.2-.8-7.5 1.6-3.2 2.3 11.6 1.9 21.2-.9 18.1-2.2zm-11.6-8.5s-5.5 1.3-1.9 1.8c1.5.2 4.5.1 7.3-.1 2.3-.2 4.6-.6 4.6-.6s-.8.3-1.4.7c-5.6 1.5-16.4.8-13.3-.7 2.6-1.3 4.7-1.1 4.7-1.1zm10 5.6c5.7-3 3.1-5.8 1.2-5.4-.4.1-.6.2-.6.2s.2-.3.5-.4c3.7-1.3 6.5 3.8-1.2 5.8 0 0 .1-.1.1-.2z" fill="#5382A1"/><path d="M18.3 2S21.5 5.2 15 7.6c-5.2 2-1.2 3.2 0 4.5-1.5-1.3-2.5-2.5-1.8-3.6C14.3 6.8 19.7 5.4 18.3 2z" fill="#E76F00"/><path d="M12.8 29.9c5.4.3 13.8-.2 14-2.5 0 0-.4 1-4.5 1.7-4.6.9-10.3.8-13.7.2 0 0 .7.6 4.2.6z" fill="#5382A1"/></svg>
