<svg xmlns="http://www.w3.org/2000/svg" viewBox="0 0 32 32"><path d="M15.885 2.1c-7.1 0-6.651 3.07-6.651 3.07v3.19h6.752v1H6.545S2 8.8 2 16.005s4.013 6.912 4.013 6.912H8.33v-3.361s-.13-4.013 3.9-4.013h6.762s3.772.06 3.772-3.652V5.8s.572-3.7-6.849-3.7zm-3.732 2.137a1.214 1.214 0 1 1-1.214 1.214 1.214 1.214 0 0 1 1.214-1.214z" fill="#4B8BBE"/><path d="M16.115 29.9c7.1 0 6.651-3.07 6.651-3.07v-3.19h-6.752v-1h9.441S30 23.2 30 15.995s-4.013-6.912-4.013-6.912H23.67v3.361s.13 4.013-3.9 4.013h-6.762s-3.772-.06-3.772 3.652v6.091s-.572 3.7 6.879 3.7zm3.732-2.137a1.214 1.214 0 1 1 1.214-1.214 1.214 1.214 0 0 1-1.214 1.214z" fill="#FFD43B"/></svg>
