<svg xmlns="http://www.w3.org/2000/svg" viewBox="0 0 32 32"><path d="M27.38 6.22a.34.34 0 0 0-.31-.29c-.13-.01-2.83-.05-2.83-.05s-2.25-2.18-2.48-2.41a.69.69 0 0 0-.62-.1l-.86.27A8.1 8.1 0 0 0 19.7 2.5C19.07 1.01 18.07 0 16.84 0a.9.9 0 0 0-.24.03C16.53.02 16.4 0 16.27 0c-.96 0-1.88.72-2.64 1.96a11.3 11.3 0 0 0-1.52 4.8l-2.65.82c-.78.24-.8.26-.9 1-.08.57-2.17 16.72-2.17 16.72L22.6 28l6.1-1.52S27.41 6.44 27.38 6.22zM20.1 4.1l-1.39.43a13.2 13.2 0 0 0-.73-3.1c1.08.2 1.8 1.37 2.12 2.67zm-3.37-2.8c.5 1.02.82 2.46.93 3.93l-3.54 1.1a8.6 8.6 0 0 1 2.61-5.03zm-1.3-.17a8.9 8.9 0 0 0-2.3 4.6l-1.74.54c.48-2.3 1.7-4.3 4.04-5.14z" fill="#95BF47"/><path d="M27.07 5.93c-.13-.01-2.83-.05-2.83-.05s-2.25-2.18-2.48-2.41a.44.44 0 0 0-.25-.12V28l6.1-1.52S27.41 6.44 27.38 6.22a.34.34 0 0 0-.31-.29z" fill="#5E8E3E"/><path d="M16.84 10.22l-.75 2.8a4.7 4.7 0 0 0-2-.42c-1.6.1-1.62 1.1-1.6 1.36.09 1.38 3.72 1.68 3.93 4.9.16 2.54-1.35 4.27-3.52 4.4a5.3 5.3 0 0 1-4.02-1.5l.55-2.33s1.44 1.08 2.58 1.01a1.05 1.05 0 0 0 1.01-1.12c-.11-1.8-3.07-1.69-3.27-4.65-.17-2.49 1.48-5.01 5.1-5.24a4.6 4.6 0 0 1 1.99.79z" fill="#fff"/></svg>
