<svg xmlns="http://www.w3.org/2000/svg" viewBox="0 0 32 32"><path d="M16 2C8.27 2 2 8.27 2 16s6.27 14 14 14 14-6.27 14-14S23.73 2 16 2zm-9.8 14c0-1.17.18-2.3.5-3.36l2.77 7.6A9.83 9.83 0 0 1 6.2 16zm9.8 9.8a9.8 9.8 0 0 1-2.78-.4l2.95-8.57 3.02 8.28a.9.9 0 0 0 .07.13A9.8 9.8 0 0 1 16 25.8zm1.35-14.67c.59-.03 1.12-.09 1.12-.09.53-.06.47-.84-.06-.81 0 0-1.58.12-2.6.12-1 0-2.62-.12-2.62-.12-.53-.03-.59.78-.06.81 0 0 .5.06 1.03.09l1.53 4.2-2.15 6.44-3.57-10.64c.59-.03 1.12-.09 1.12-.09.53-.06.47-.84-.06-.81 0 0-1.58.12-2.6.12-.18 0-.4 0-.62-.01A9.82 9.82 0 0 1 16 6.2c2.57 0 4.91.98 6.67 2.59-.04 0-.09-.01-.13-.01-.99 0-1.7.87-1.7 1.8 0 .84.48 1.55.99 2.38.38.67.83 1.53.83 2.77 0 .86-.33 1.86-.77 3.25l-1.01 3.38-3.53-10.23zm4.9 12.5l2.99-8.65c.56-1.4.75-2.52.75-3.52 0-.36-.02-.7-.07-1.01A9.82 9.82 0 0 1 25.8 16a9.8 9.8 0 0 1-3.55 7.63z" fill="#21759B"/></svg>
